<svg width="20" height="20" viewBox="0 0 20 20" fill="none" xmlns="http://www.w3.org/2000/svg">
<path d="M2.26666 5.73325C2.26666 7.19992 2.73333 8.33325 3.73333 8.93325C4.53333 9.46658 5.46666 9.53325 5.93333 9.53325C6.06666 9.53325 6.13333 9.53325 6.2 9.53325C6.2 9.53325 6.06666 10.5333 6.8 11.5333H6.73333C5.46666 11.5333 1.26666 11.7999 1.26666 15.2666C1.26666 18.7999 5.13333 18.9333 5.93333 18.9333C6 18.9333 6 18.9333 6 18.9333C6 18.9333 6.06666 18.9333 6.13333 18.9333C6.6 18.9333 7.93333 18.8666 9.13333 18.2666C10.6667 17.5333 11.4667 16.1999 11.4667 14.3999C11.4667 12.6666 10.2667 11.5999 9.4 10.7999C8.86666 10.3333 8.4 9.93325 8.4 9.53325C8.4 9.13325 8.73333 8.79992 9.13333 8.46658C9.8 7.86658 10.4667 6.99992 10.4667 5.33325C10.4667 3.86659 10.2667 2.86659 9.13333 2.26659C9.33333 2.19992 9.8 2.13325 10 2.13325C10.6 2.06659 11.5333 1.93325 11.5333 1.46659V1.33325H6.93333C6.86666 1.33325 2.26666 1.53325 2.26666 5.73325ZM9.73333 14.7333C9.8 16.1333 8.6 17.1999 6.8 17.3333C4.93333 17.4666 3.46666 16.6666 3.4 15.2666C3.33333 14.5999 3.66666 13.9333 4.26666 13.3999C4.86666 12.8666 5.66666 12.5333 6.53333 12.4666C6.66666 12.4666 6.73333 12.4666 6.86666 12.4666C8.46666 12.3999 9.6 13.3999 9.73333 14.7333ZM8.53333 4.73325C9 6.33325 8.33333 7.99992 7.2 8.26658C7.06666 8.33325 6.93333 8.33325 6.8 8.33325C5.8 8.33325 4.8 7.33325 4.46666 5.93325C4.26666 5.19992 4.26666 4.53325 4.53333 3.86659C4.73333 3.19992 5.2 2.79992 5.66666 2.66659C5.8 2.59992 5.93333 2.59992 6.06666 2.59992C7.26666 2.59992 8 3.06659 8.53333 4.73325ZM16.2667 8.13325V5.13325H14.2667V8.13325H11.2667V10.1333H14.2667V13.1333H16.2667V10.1333H19.2667V8.13325H16.2667Z" fill="black"/>
</svg>
