<svg width="20" height="20" viewBox="0 0 20 20" fill="none" xmlns="http://www.w3.org/2000/svg">
<path d="M17.2666 5.8C16.7333 2.06666 13 0.199999 9.06664 0.666665C5.93331 0.999999 2.79997 3.53333 2.66664 7.13333C2.59997 9.33333 3.19997 11 5.33331 11.4667C6.26664 9.86666 5.06664 9.53333 4.86664 8.33333C4.06664 3.53333 10.4 0.333332 13.6666 3.66666C15.9333 6 14.4666 13.0667 10.8 12.3333C7.26664 11.6 12.5333 6 9.73331 4.86666C7.46664 3.93333 6.26664 7.6 7.33331 9.46666C6.66664 12.6 5.33331 15.5333 5.86664 19.4667C7.66664 18.1333 8.26664 15.6667 8.73331 13.0667C9.59997 13.6 10.1333 14.2 11.2666 14.2667C15.4666 14.6 17.8 10 17.2666 5.8Z" fill="black"/>
</svg>
