<svg width="20" height="20" viewBox="0 0 20 20" fill="none" xmlns="http://www.w3.org/2000/svg">
<path d="M17.4667 6.40008C17.4667 6.53342 17.4667 6.73342 17.4667 6.86675C17.4667 11.8667 13.6667 17.6001 6.73335 17.6001C4.60002 17.6001 2.60002 17.0001 0.93335 15.9334C1.20002 15.9334 1.53335 16.0001 1.86668 16.0001C3.66668 16.0001 5.26668 15.4001 6.53335 14.4001C4.86668 14.4001 3.46668 13.2667 3.00002 11.8001C3.20002 11.8667 3.46668 11.8667 3.73335 11.8667C4.06668 11.8667 4.40002 11.8001 4.73335 11.7334C3.00002 11.3334 1.66668 9.80008 1.66668 8.00008C1.66668 8.00008 1.66668 8.00008 1.66668 7.93341C2.20002 8.20008 2.73335 8.40008 3.40002 8.40008C2.40002 7.73342 1.73335 6.60008 1.73335 5.26675C1.73335 4.60008 1.93335 3.93341 2.26668 3.40008C4.13335 5.66675 6.93335 7.20008 10.0667 7.33342C10 7.06675 10 6.80008 10 6.46675C10 4.40008 11.6667 2.66675 13.8 2.66675C14.8667 2.66675 15.8667 3.13341 16.5333 3.86675C17.4 3.66675 18.2 3.40008 18.9333 2.93341C18.6667 3.80008 18.0667 4.53341 17.2667 5.00008C17.9333 4.93341 18.6667 4.73341 19.3334 4.46675C18.8 5.20008 18.2 5.86675 17.4667 6.40008Z" fill="black"/>
</svg>
