<svg width="20" height="20" viewBox="0 0 20 20" fill="none" xmlns="http://www.w3.org/2000/svg">
<path d="M14.6 7.60003C14.6 7.60003 13.1333 12.2667 13 12.6C12.9333 12.2 11.8666 3.8667 11.8666 3.8667C9.33331 3.8667 7.99998 5.6667 7.26665 7.53337C7.26665 7.53337 5.46665 12.2 5.33332 12.6C5.33332 12.2667 5.06665 7.60003 5.06665 7.60003C4.93332 5.2667 2.79998 3.8667 1.06665 3.8667L3.13332 16.4667C5.79998 16.4667 7.19998 14.6667 7.93332 12.8C7.93332 12.8 9.53332 8.6667 9.59998 8.53337C9.59998 8.73337 10.7333 16.5334 10.7333 16.5334C13.4 16.5334 14.8 14.8667 15.6 13L19.3333 3.8667C16.7333 3.8667 15.3333 5.6667 14.6 7.60003Z" fill="black"/>
</svg>
